<mxfile host="app.diagrams.net" modified="2024-06-11T15:57:46.627Z" agent="Mozilla/5.0 (Windows NT 10.0; Win64; x64) AppleWebKit/537.36 (KHTML, like Gecko) Chrome/125.0.0.0 Safari/537.36 Edg/125.0.0.0" etag="eU0GYAujGmH3kfxNGPJF" version="24.5.3" type="device">
  <diagram id="3j9G0F825_cHGCq9AKto" name="Page-2">
    <mxGraphModel dx="1963" dy="-3513" grid="1" gridSize="10" guides="1" tooltips="1" connect="1" arrows="1" fold="1" page="1" pageScale="1" pageWidth="827" pageHeight="1169" math="0" shadow="0">
      <root>
        <mxCell id="0" />
        <mxCell id="1" parent="0" />
        <mxCell id="KhuRC_Y1lqTb-dmsCv6L-51" value="&lt;font style=&quot;font-size: 18px;&quot;&gt;&lt;b&gt;Customer Deposit&lt;/b&gt;&lt;/font&gt;" style="text;html=1;align=center;verticalAlign=middle;whiteSpace=wrap;rounded=0;" parent="1" vertex="1">
          <mxGeometry x="772.9300000000001" y="4800" width="230" height="30" as="geometry" />
        </mxCell>
        <mxCell id="KhuRC_Y1lqTb-dmsCv6L-52" value="" style="rounded=0;whiteSpace=wrap;html=1;" parent="1" vertex="1">
          <mxGeometry x="269.93" y="4870" width="1250" height="860" as="geometry" />
        </mxCell>
        <mxCell id="KhuRC_Y1lqTb-dmsCv6L-53" value="" style="rounded=0;whiteSpace=wrap;html=1;fillColor=#f5f5f5;fontColor=#333333;strokeColor=#666666;rotation=-270;" parent="1" vertex="1">
          <mxGeometry x="-50" y="5194.6900000000005" width="857.5" height="213.13" as="geometry" />
        </mxCell>
        <mxCell id="KhuRC_Y1lqTb-dmsCv6L-54" value="&lt;font size=&quot;3&quot;&gt;&lt;b&gt;LOGO&lt;/b&gt;&lt;/font&gt;" style="rhombus;whiteSpace=wrap;html=1;fillColor=#dae8fc;strokeColor=#6c8ebf;" parent="1" vertex="1">
          <mxGeometry x="280.93" y="4880" width="80" height="80" as="geometry" />
        </mxCell>
        <mxCell id="KhuRC_Y1lqTb-dmsCv6L-55" value="&lt;b&gt;Logout&lt;/b&gt;" style="rounded=0;whiteSpace=wrap;html=1;fillColor=#dae8fc;strokeColor=#6c8ebf;" parent="1" vertex="1">
          <mxGeometry x="1349.93" y="4900" width="90" height="40" as="geometry" />
        </mxCell>
        <mxCell id="KhuRC_Y1lqTb-dmsCv6L-56" value="" style="rounded=0;whiteSpace=wrap;html=1;fillColor=#f5f5f5;fontColor=#f5f5f5;strokeColor=#666666;" parent="1" vertex="1">
          <mxGeometry x="270.93" y="5630" width="1249" height="100" as="geometry" />
        </mxCell>
        <mxCell id="KhuRC_Y1lqTb-dmsCv6L-57" value="&lt;font style=&quot;font-size: 14px;&quot;&gt;Footer Information&lt;/font&gt;" style="text;html=1;align=center;verticalAlign=middle;whiteSpace=wrap;rounded=0;" parent="1" vertex="1">
          <mxGeometry x="823.9300000000001" y="5665" width="126" height="30" as="geometry" />
        </mxCell>
        <mxCell id="KhuRC_Y1lqTb-dmsCv6L-58" value="&lt;b&gt;&lt;font style=&quot;font-size: 18px;&quot;&gt;Welcome Message&lt;/font&gt;&lt;/b&gt;" style="text;html=1;align=center;verticalAlign=middle;whiteSpace=wrap;rounded=0;" parent="1" vertex="1">
          <mxGeometry x="510.93" y="4890" width="230" height="30" as="geometry" />
        </mxCell>
        <mxCell id="KhuRC_Y1lqTb-dmsCv6L-59" value="Current user information" style="text;html=1;align=center;verticalAlign=middle;whiteSpace=wrap;rounded=0;" parent="1" vertex="1">
          <mxGeometry x="530.9300000000001" y="4930" width="160" height="30" as="geometry" />
        </mxCell>
        <mxCell id="KhuRC_Y1lqTb-dmsCv6L-60" value="&lt;font style=&quot;font-size: 14px;&quot;&gt;Menu Options&lt;/font&gt;" style="text;html=1;align=center;verticalAlign=middle;whiteSpace=wrap;rounded=0;" parent="1" vertex="1">
          <mxGeometry x="290.93" y="5040" width="110" height="30" as="geometry" />
        </mxCell>
        <mxCell id="KhuRC_Y1lqTb-dmsCv6L-61" value="&lt;font style=&quot;font-size: 14px;&quot;&gt;Dashboard&lt;/font&gt;" style="text;html=1;align=center;verticalAlign=middle;whiteSpace=wrap;rounded=0;" parent="1" vertex="1">
          <mxGeometry x="275.93" y="5110" width="110" height="30" as="geometry" />
        </mxCell>
        <mxCell id="KhuRC_Y1lqTb-dmsCv6L-62" value="&lt;font style=&quot;font-size: 14px;&quot;&gt;Transactions&lt;/font&gt;" style="text;html=1;align=center;verticalAlign=middle;whiteSpace=wrap;rounded=0;" parent="1" vertex="1">
          <mxGeometry x="280.93" y="5150" width="110" height="30" as="geometry" />
        </mxCell>
        <mxCell id="KhuRC_Y1lqTb-dmsCv6L-63" value="&lt;font style=&quot;font-size: 14px;&quot;&gt;Profile&lt;/font&gt;" style="text;html=1;align=center;verticalAlign=middle;whiteSpace=wrap;rounded=0;" parent="1" vertex="1">
          <mxGeometry x="260.93" y="5210" width="110" height="30" as="geometry" />
        </mxCell>
        <mxCell id="KhuRC_Y1lqTb-dmsCv6L-64" style="edgeStyle=orthogonalEdgeStyle;rounded=0;orthogonalLoop=1;jettySize=auto;html=1;exitX=0.5;exitY=1;exitDx=0;exitDy=0;" parent="1" source="KhuRC_Y1lqTb-dmsCv6L-63" target="KhuRC_Y1lqTb-dmsCv6L-63" edge="1">
          <mxGeometry relative="1" as="geometry" />
        </mxCell>
        <mxCell id="KhuRC_Y1lqTb-dmsCv6L-65" value="" style="endArrow=none;html=1;rounded=0;" parent="1" edge="1">
          <mxGeometry width="50" height="50" relative="1" as="geometry">
            <mxPoint x="410.93" y="5090" as="sourcePoint" />
            <mxPoint x="290.93" y="5090" as="targetPoint" />
          </mxGeometry>
        </mxCell>
        <mxCell id="KhuRC_Y1lqTb-dmsCv6L-66" value="&lt;font style=&quot;font-size: 14px;&quot;&gt;Amount:&lt;/font&gt;" style="text;html=1;align=center;verticalAlign=middle;whiteSpace=wrap;rounded=0;" parent="1" vertex="1">
          <mxGeometry x="530.9300000000001" y="5090" width="60" height="30" as="geometry" />
        </mxCell>
        <mxCell id="KhuRC_Y1lqTb-dmsCv6L-67" value="" style="rounded=0;whiteSpace=wrap;html=1;" parent="1" vertex="1">
          <mxGeometry x="530.9300000000001" y="5175" width="170" height="35" as="geometry" />
        </mxCell>
        <mxCell id="KhuRC_Y1lqTb-dmsCv6L-68" value="&lt;font style=&quot;font-size: 14px;&quot;&gt;Description:&lt;/font&gt;" style="text;html=1;align=center;verticalAlign=middle;whiteSpace=wrap;rounded=0;" parent="1" vertex="1">
          <mxGeometry x="539.9300000000001" y="5260" width="60" height="30" as="geometry" />
        </mxCell>
        <mxCell id="KhuRC_Y1lqTb-dmsCv6L-69" value="" style="rounded=0;whiteSpace=wrap;html=1;" parent="1" vertex="1">
          <mxGeometry x="529.9300000000001" y="5350" width="170" height="35" as="geometry" />
        </mxCell>
        <mxCell id="KhuRC_Y1lqTb-dmsCv6L-70" value="&lt;font style=&quot;font-size: 24px;&quot;&gt;DEPOSIT&lt;/font&gt;" style="text;html=1;align=center;verticalAlign=middle;whiteSpace=wrap;rounded=0;" parent="1" vertex="1">
          <mxGeometry x="939.9300000000001" y="4990" width="60" height="30" as="geometry" />
        </mxCell>
        <mxCell id="KhuRC_Y1lqTb-dmsCv6L-91" value="" style="rounded=0;whiteSpace=wrap;html=1;" parent="1" vertex="1">
          <mxGeometry x="1039.93" y="5062.5" width="370" height="260" as="geometry" />
        </mxCell>
        <mxCell id="KhuRC_Y1lqTb-dmsCv6L-92" value="" style="endArrow=none;html=1;rounded=0;entryX=1;entryY=0;entryDx=0;entryDy=0;exitX=0;exitY=1;exitDx=0;exitDy=0;" parent="1" source="KhuRC_Y1lqTb-dmsCv6L-91" target="KhuRC_Y1lqTb-dmsCv6L-91" edge="1">
          <mxGeometry width="50" height="50" relative="1" as="geometry">
            <mxPoint x="859.9300000000001" y="5320" as="sourcePoint" />
            <mxPoint x="909.9300000000001" y="5270" as="targetPoint" />
          </mxGeometry>
        </mxCell>
        <mxCell id="KhuRC_Y1lqTb-dmsCv6L-93" value="" style="endArrow=none;html=1;rounded=0;entryX=1;entryY=1;entryDx=0;entryDy=0;exitX=0;exitY=0;exitDx=0;exitDy=0;" parent="1" source="KhuRC_Y1lqTb-dmsCv6L-91" target="KhuRC_Y1lqTb-dmsCv6L-91" edge="1">
          <mxGeometry width="50" height="50" relative="1" as="geometry">
            <mxPoint x="859.9300000000001" y="5320" as="sourcePoint" />
            <mxPoint x="909.9300000000001" y="5270" as="targetPoint" />
          </mxGeometry>
        </mxCell>
        <mxCell id="KhuRC_Y1lqTb-dmsCv6L-94" value="image" style="text;html=1;align=center;verticalAlign=middle;whiteSpace=wrap;rounded=0;" parent="1" vertex="1">
          <mxGeometry x="1194.93" y="5130" width="60" height="30" as="geometry" />
        </mxCell>
        <mxCell id="KhuRC_Y1lqTb-dmsCv6L-95" value="" style="rounded=0;whiteSpace=wrap;html=1;" parent="1" vertex="1">
          <mxGeometry x="1034.93" y="5370" width="380" height="230" as="geometry" />
        </mxCell>
        <mxCell id="KhuRC_Y1lqTb-dmsCv6L-96" value="&lt;span style=&quot;font-size: 14px;&quot;&gt;Balance information&lt;/span&gt;" style="text;html=1;align=center;verticalAlign=middle;whiteSpace=wrap;rounded=0;" parent="1" vertex="1">
          <mxGeometry x="1139.93" y="5460" width="180" height="30" as="geometry" />
        </mxCell>
        <mxCell id="4bFOf3q3WvnAby6B3AYO-30" value="&lt;h1 style=&quot;margin-top: 0px;&quot;&gt;A&lt;/h1&gt;" style="text;html=1;whiteSpace=wrap;overflow=hidden;rounded=0;align=center;" parent="1" vertex="1">
          <mxGeometry x="938.93" y="5260" width="30" height="40" as="geometry" />
        </mxCell>
        <mxCell id="4bFOf3q3WvnAby6B3AYO-31" value="&lt;h1 style=&quot;margin-top: 0px;&quot;&gt;B&lt;/h1&gt;" style="text;html=1;whiteSpace=wrap;overflow=hidden;rounded=0;align=center;" parent="1" vertex="1">
          <mxGeometry x="419" y="4890" width="30" height="40" as="geometry" />
        </mxCell>
        <mxCell id="4bFOf3q3WvnAby6B3AYO-34" value="&lt;h1 style=&quot;margin-top: 0px;&quot;&gt;E&lt;/h1&gt;" style="text;html=1;whiteSpace=wrap;overflow=hidden;rounded=0;align=center;" parent="1" vertex="1">
          <mxGeometry x="1366" y="5080" width="30" height="40" as="geometry" />
        </mxCell>
        <mxCell id="4bFOf3q3WvnAby6B3AYO-35" value="&lt;h1 style=&quot;margin-top: 0px;&quot;&gt;F&lt;/h1&gt;" style="text;html=1;whiteSpace=wrap;overflow=hidden;rounded=0;align=center;" parent="1" vertex="1">
          <mxGeometry x="1359.9299999999998" y="5385" width="30" height="40" as="geometry" />
        </mxCell>
        <mxCell id="4bFOf3q3WvnAby6B3AYO-37" value="&lt;h1 style=&quot;margin-top: 0px;&quot;&gt;H&lt;/h1&gt;" style="text;html=1;whiteSpace=wrap;overflow=hidden;rounded=0;align=center;" parent="1" vertex="1">
          <mxGeometry x="923" y="4900" width="30" height="40" as="geometry" />
        </mxCell>
        <mxCell id="4bFOf3q3WvnAby6B3AYO-42" value="&lt;h1 style=&quot;margin-top: 0px;&quot;&gt;C&lt;/h1&gt;" style="text;html=1;whiteSpace=wrap;overflow=hidden;rounded=0;align=center;" parent="1" vertex="1">
          <mxGeometry x="985.9300000000001" y="5655" width="30" height="40" as="geometry" />
        </mxCell>
      </root>
    </mxGraphModel>
  </diagram>
</mxfile>
